<svg xmlns="http://www.w3.org/2000/svg" width="48" height="48" viewBox="0 0 48 48">
    <g fill="none" fill-rule="nonzero">
        <rect width="48" height="48" fill="#FFF" rx="6"/>
        <path fill="#EC0000" d="M30.22 22.286a6.685 6.685 0 0 0-.895-3.018l-4.859-8.27A6.475 6.475 0 0 1 23.702 9l-.207.344a6.523 6.523 0 0 0 0 6.616l3.887 6.616a6.523 6.523 0 0 1 0 6.617l-.208.343a6.475 6.475 0 0 0-.764-1.997l-3.549-6.058-2.271-3.888a6.604 6.604 0 0 1-.775-1.998l-.197.344a6.512 6.512 0 0 0 0 6.594l3.887 6.638a6.47 6.47 0 0 1 0 6.616l-.196.344a6.645 6.645 0 0 0-.764-1.998l-4.86-8.27a6.501 6.501 0 0 1-.95-3.577C11.538 23.63 8 26.464 8 29.74 8 34.305 14.945 38 23.495 38 32.045 38 39 34.294 39 29.73c0-3.266-3.582-6.112-8.78-7.444z"/>
    </g>
</svg>
