<svg xmlns="http://www.w3.org/2000/svg" viewBox="0 0 24 24"><path fill="#EC0000" d="M18.5 17.5A2.5 2.5 0 0 1 16 15c0-.835.415-1.57 1.045-2.024l.999 2.228a.5.5 0 0 0 .66.252.5.5 0 0 0 .252-.66l-1.001-2.233c.176-.039.358-.063.545-.063 1.379 0 2.5 1.121 2.5 2.5s-1.121 2.5-2.5 2.5m-5.478-3h-2.047a5.5 5.5 0 0 0-2.323-4H10.5a.5.5 0 0 0 .5-.5c0-.827.673-1.5 1.5-1.5h4c.663 0 1.227.433 1.425 1.03a5.4 5.4 0 0 0-1.581.429c-.032.007-.064.008-.094.021-.018.008-.028.023-.044.032a5.5 5.5 0 0 0-3.184 4.488m-7.522 3A2.5 2.5 0 0 1 3 15c0-1.379 1.121-2.5 2.5-2.5 1.208 0 2.217.86 2.449 2H5.5a.5.5 0 0 0 0 1h2.449a2.5 2.5 0 0 1-2.449 2m13-6c-.333 0-.649.062-.955.149l-.41-.915A4.5 4.5 0 0 1 18.5 10.5a.5.5 0 0 0 .5-.5c0-1.379-1.121-2.5-2.5-2.5h-.815l-.33-.734A2.04 2.04 0 0 0 13.466 5.5H12.5a.5.5 0 0 0 0 1h.966c.425 0 .804.254.972.66l.152.34H12.5c-1.207 0-2.218.86-2.45 2H3.5a.5.5 0 0 0 0 1h2c2.311 0 4.197 1.756 4.449 4h-1c-.245-1.691-1.69-3-3.449-3C3.57 11.5 2 13.07 2 15s1.57 3.5 3.5 3.5c1.759 0 3.204-1.309 3.449-3H13.5a.5.5 0 0 0 .5-.5c0-1.646.898-3.074 2.223-3.859l.408.911A3.5 3.5 0 0 0 15 15c0 1.93 1.57 3.5 3.5 3.5S22 16.93 22 15s-1.57-3.5-3.5-3.5"/></svg>